<?xml version="1.0" encoding="UTF-8" standalone="no"?>
<!DOCTYPE svg PUBLIC "-//W3C//DTD SVG 1.1//EN" "http://www.w3.org/Graphics/SVG/1.1/DTD/svg11.dtd">
<svg width="100%" height="100%" viewBox="0 0 100 100" version="1.1" xmlns="http://www.w3.org/2000/svg" xmlns:xlink="http://www.w3.org/1999/xlink" xml:space="preserve" xmlns:serif="http://www.serif.com/" style="fill-rule:evenodd;clip-rule:evenodd;stroke-linejoin:round;stroke-miterlimit:2;">
    <g transform="matrix(1,0,0,1,-0.476462,-0.48539)">
        <g transform="matrix(0.900767,0,0,0.900767,-15.6067,-10.3444)">
            <g transform="matrix(0.0506371,0,0,0.0411018,-1288.91,-254.067)">
                <path d="M26851.6,6484.83C26876.9,6470.26 26907.9,6470.27 26933.2,6484.83L27934.9,7063.3C27961.6,7078.67 27978,7107.07 27978,7137.81L27978,8487.15C27978,8516.57 27962.3,8543.75 27936.8,8558.46L26933.7,9137.58C26908.1,9152.4 26876.4,9152.4 26850.8,9137.58L25850.1,8559.84C25823.1,8544.28 25806.5,8515.51 25806.5,8484.38L25806.5,7135.42C25806.5,7106.16 25822.1,7079.13 25847.5,7064.5L26851.6,6484.83ZM26641.7,8727.56L26850,8848.88C26875.4,8863.71 26906.9,8863.77 26932.4,8849.04L27686.6,8413.58C27711.9,8399.01 27727.4,8372.08 27727.4,8342.94L27727.4,7789.03C27727.4,7773.76 27719.3,7759.64 27706,7752.01C27692.8,7744.37 27676.5,7744.37 27663.3,7752.01L27059.3,8100.72L27059.3,7811.41L27727.4,7425.67L27727.4,7310.56C27727.4,7294.52 27718.8,7279.69 27705,7271.68C27691.1,7263.65 27674,7263.65 27660.1,7271.68L26936.5,7689.42C26909.1,7705.23 26892.2,7734.46 26892.2,7766.1L26892.2,8316.89C26892.2,8331.98 26900.3,8345.92 26913.4,8353.46C26926.4,8361.01 26942.5,8361.01 26955.6,8353.46L27560.4,8004.29L27560.4,8293.6L26892.2,8679.34L26641.7,8534.69C26641.7,8534.69 26641.7,7809.72 26641.7,7616.93C26641.7,7588.49 26655.1,7562.61 26676,7550.54C26833.1,7459.85 27476.9,7088.14 27476.9,7088.14L27309.8,6991.7C27309.8,6991.7 26663.5,7364.85 26508.1,7454.63C26487.7,7466.38 26474.7,7491.58 26474.7,7519.27C26474.7,7639.31 26474.7,7956.07 26474.7,7956.07L26224.1,7811.41C26224.1,7811.41 26224.1,7505.08 26224.1,7380.75C26224.1,7349.31 26238.9,7320.71 26262,7307.37C26425,7213.22 27059.3,6847.05 27059.3,6847.05L26933,6774.14C26907.8,6759.58 26876.7,6759.58 26851.5,6774.14C26851.5,6774.14 26237.6,7128.57 26089.1,7214.29C26069.6,7225.58 26057.1,7249.78 26057.1,7276.38C26057.1,7481.6 26057.1,8341.56 26057.1,8341.56C26057.1,8371.56 26073.1,8399.27 26099.1,8414.27L26224.1,8486.47L26224.1,8004.29L26474.7,8148.94L26474.7,8580.28C26474.7,8611.75 26491.4,8640.82 26518.7,8656.55L26641.7,8727.56Z"/>
            </g>
        </g>
    </g>
</svg>
